# xmcd
#
# Track frame offsets:
# 150
# 12954
# 29077
# 44874
# 64352
# 78366
# 96421
# 114030
# 131729
# 147245
# 161685
# 177791
# 194389
# 209813
# 224356
# 241791
#
# Disc length: 3441 seconds
#
#
# Revision: 0
# Processed by: cddbd v1.5.2PL0 Copyright (c) Steve Scherf et al.
# Submitted via: FreeRIP 2.96 
#
DISCID=f20d6f10
DTITLE=Marcelinho de Lima - Gravação do DVD ao vivo  - Gravação do DVD 
DYEAR=2006
DGENRE=sertanejo
TTITLE0=cai chuva
TTITLE1=To morrendo de saudade
TTITLE2=Tudo por nada ( My heart Can't tell you no)
TTITLE3=Frente a frente
TTITLE4=Esquecer é nosso jeito
TTITLE5=Pouti-pourri- cai sereno/ Saudade boa de briga/ Eu achei bão
TTITLE6=E tome amor
TTITLE7=Feito tatuagem
TTITLE8=Trem que é bom
TTITLE9=A barra vai pesar
TTITLE10=É saudade
TTITLE11=Pout-porri- Castelo de Amor/ Blusa vermelha
TTITLE12=Luzes da ribalta
TTITLE13=Noite fria
TTITLE14=FAltou coragem
TTITLE15=O ipê e o priosioneiro
EXTD=emerson@betim.mg.gov.br
EXTT0=
EXTT1=
EXTT2=
EXTT3=
EXTT4=
EXTT5=
EXTT6=
EXTT7=
EXTT8=
EXTT9=
EXTT10=
EXTT11=
EXTT12=
EXTT13=
EXTT14=
EXTT15=
PLAYORDER=
